<?xml version="1.0" encoding="utf-8"?>
<!-- Generator: Adobe Illustrator 19.0.0, SVG Export Plug-In . SVG Version: 6.00 Build 0)  -->
<svg version="1.1" id="Layer_1" xmlns="http://www.w3.org/2000/svg" xmlns:xlink="http://www.w3.org/1999/xlink" x="0px" y="0px"
	 viewBox="0 0 500 500" style="enable-background:new 0 0 500 500;" xml:space="preserve">
<style type="text/css">
	.st0{clip-path:url(#XMLID_64_);fill:#231F20;}
	.st1{clip-path:url(#XMLID_65_);fill:#231F20;}
	.st2{clip-path:url(#XMLID_66_);fill:#231F20;}
	.st3{fill:#ED1C24;}
	.st4{fill:#231F20;}
</style>
<g id="XMLID_1_">
	<g id="XMLID_2_">
		<defs>
			<rect id="XMLID_3_" x="67.5" y="174.6" width="365" height="150.8"/>
		</defs>
		<clipPath id="XMLID_64_">
			<use xlink:href="#XMLID_3_"  style="overflow:visible;"/>
		</clipPath>
		<path id="XMLID_4_" class="st0" d="M382.1,324.9L382.1,324.9c-0.2,0-0.3,0-0.5,0c-0.4,0-0.9,0-1.6,0.1c-1.4,0-3.4,0-5.8-0.2
			c-4.8-0.4-11.2-1.3-17.5-3.8c-12.5-4.9-24.5-15.6-22.7-39.1h33.7c-0.6,9.2,1.6,14.5,12.5,16.5l0-0.2v0.2v-0.2l0,0.2h0
			c4.3,0.3,7.9-0.4,10.5-2.3c2.6-1.9,4.1-4.9,4-9.3h-0.2h0.2c-0.1-10.4-20.4-14.1-29.8-18.3l-0.1,0.2v0l0.1-0.2
			c-9.3-4.4-21.7-9.6-21.7-26.6H343h0.2c0-9,2.5-15,5.3-19l-0.1-0.1v0l0.1,0.1c8.9-12.1,20.7-16.6,37.5-18.4
			c15.8-0.8,27.9,2.7,35.7,9.2c7.8,6.5,11.4,15.9,10.5,26.9c-0.1,0-0.2,0-0.4,0c-0.5,0-1.5,0-3.5,0c-4,0-11.9,0-27.7-0.1
			c0.1-6.6-2.8-9.7-5.7-11.1c-1.4-0.7-2.9-1-4-1.1c-0.5-0.1-1-0.1-1.3-0.1c-0.2,0-0.3,0-0.4,0c-0.1,0-0.1,0-0.1,0l-0.1,0.2v0
			c0-0.2,0-0.2,0-0.2c-0.1,0-0.1,0-0.2,0c-0.2,0-0.5,0-0.9,0.1c-0.8,0.1-1.8,0.2-2.9,0.6c-2.2,0.7-4.5,2.1-5.1,5.2
			c-1.1,6,3.4,7.5,6.8,9.2c8,3.9,16.2,6.6,23.8,10.4c11,5.5,19.8,12.9,19.8,29.2C430.1,302.9,419.7,324.9,382.1,324.9l0,0.2l0,0
			C382.1,324.9,382.1,324.9,382.1,324.9 M432.3,240.9L432.3,240.9"/>
	</g>
	<g id="XMLID_7_">
		<defs>
			<rect id="XMLID_8_" x="67.5" y="174.6" width="365" height="150.8"/>
		</defs>
		<clipPath id="XMLID_65_">
			<use xlink:href="#XMLID_8_"  style="overflow:visible;"/>
		</clipPath>
		<path id="XMLID_9_" class="st1" d="M374.1,325.2c-4.8-0.4-11.3-1.3-17.6-3.8c-12.6-4.9-24.8-15.8-22.9-39.6v-0.2h34.2v0.2v-0.2
			h0.2v0.2c-0.5,9.3,1.3,14.3,12.2,16.3c4.2,0.3,7.8-0.4,10.3-2.2c2.5-1.8,3.9-4.7,3.9-9h0.2c0,8.6-5.8,11.9-14.4,11.4v0v0
			c-11-2-13-7.3-12.4-16.5h-34c-3.7,46.4,46.3,43.5,48.3,43.3l0,0.2l0.1,0v-0.2c37.6,0,48.2-22.1,48.2-41.9
			c0-16.3-8.8-23.8-19.9-29.3c-7.6-3.8-15.8-6.5-23.8-10.4c-3.4-1.7-7.7-3.2-6.7-9.1c1-5.5,8.2-5.7,9-5.7l0,0.1l0-0.1l0.1,0
			c0.1,0.1,11.6-1.2,11.4,12.2c31.5,0.1,31.8,0.1,31.9,0l0.1,0.1l-0.1-0.1c1.8-22.2-14.6-38.1-46.4-36.4
			c-16.8,1.8-28.7,6.4-37.6,18.5l-0.1-0.1c8.9-12.2,20.9-16.7,37.7-18.6h0v0.1v0.1v-0.2c15.9-0.8,28,2.7,35.9,9.3
			c6.4,5.3,10,12.6,10.7,21.1v5.8c0,0.1,0,0.3-0.1,0.4v0.1l-0.1,0.1l-0.2,0.1c-0.1,0-0.2,0-0.4,0c-0.5,0-1.5,0-3.5,0
			c-4,0-11.9,0-27.8,0h-0.2v-0.2h0.2h-0.2c0.1-6.7-2.7-9.6-5.5-11c-2.9-1.3-5.6-1-5.8-1.1l0.1,0H389c-0.1,0-0.1,0-0.2,0
			c-0.2,0-0.5,0-0.9,0.1c-0.8,0.1-1.8,0.2-2.8,0.6c-2.1,0.7-4.3,2.1-4.9,4.9c-1,5.7,3.1,7.1,6.6,8.9v0c7.9,3.9,16.2,6.6,23.8,10.4
			c11.1,5.5,20,13,20,29.5c0,9.9-2.6,20.4-10,28.5c-7.4,8-19.5,13.6-38.4,13.6v0v0l-0.1,0c-0.1,0-0.2,0-0.4,0c-0.4,0-1,0-1.6,0.1
			c-0.3,0-0.6,0-1,0C377.7,325.4,376,325.3,374.1,325.2 M382.1,325.2l0.1-0.2l0,0L382.1,325.2 M394.4,286.9
			c0.1-9.9-20.1-13.8-29.6-17.9l0.1-0.2l-0.1,0.2l0.1-0.2c9.5,4.1,29.7,8,29.7,18.1H394.4 M342.8,242.1h0.2
			c0,17.1,12.5,22.3,21.9,26.8l-0.1,0.2C355.4,264.6,342.9,259.3,342.8,242.1c0-9,2.5-15.2,5.4-19.2v0l0.1,0.1l-0.1-0.1l0.1,0.1
			c-2.8,4-5.3,10.1-5.3,19.1H342.8 M388.9,228.8L388.9,228.8"/>
	</g>
	<g id="XMLID_15_">
		<defs>
			<rect id="XMLID_16_" x="67.5" y="174.6" width="365" height="150.8"/>
		</defs>
		<clipPath id="XMLID_66_">
			<use xlink:href="#XMLID_16_"  style="overflow:visible;"/>
		</clipPath>
		<path id="XMLID_17_" class="st2" d="M333.8,281.8h34c-0.6,9.3,1.4,14.5,12.4,16.5l0,0.2c-11-2-13.1-7.4-12.5-16.5h-33.7
			c-1.8,23.5,10.2,34.2,22.7,39.1c6.3,2.4,12.6,3.4,17.5,3.8c2.4,0.2,4.4,0.2,5.8,0.2c0.7,0,1.3,0,1.6-0.1c0.2,0,0.3,0,0.4,0l0.1,0
			c0,0,0,0,0,0.2c-0.3,0-1.4,0.1-3.1,0.1C367.7,325.2,330.6,322,333.8,281.8 M382.1,324.9v0.2l0,0L382.1,324.9c37.6,0,48-22,48-41.7
			c0-16.3-8.7-23.6-19.8-29.2l0.1-0.2l-0.1,0.2c-7.6-3.8-15.8-6.5-23.8-10.4c-3.4-1.7-7.9-3.3-6.8-9.2c0.5-3,2.9-4.5,5.1-5.2
			c1.1-0.4,2.1-0.5,2.9-0.6c0.4,0,0.7-0.1,0.9-0.1c0.1,0,0.2,0,0.2,0c0,0,0.1,0,0,0.2c-0.8,0-8,0.2-9,5.7c-1,5.8,3.3,7.3,6.7,9.1
			c7.9,3.9,16.2,6.6,23.8,10.4c11,5.5,19.9,13,19.9,29.3c0,19.8-10.5,41.9-48.2,41.9V324.9 M386.6,243.6l0.1-0.2L386.6,243.6
			 M380.2,298.5L380.2,298.5v-0.2V298.5v-0.2c8.5,0.5,14.4-2.8,14.4-11.4h0.2c0,4.4-1.5,7.4-4,9.3c-2.2,1.6-5.2,2.4-8.8,2.4
			C381.3,298.6,380.7,298.5,380.2,298.5 M394.5,286.9c0-10.1-20.2-13.9-29.7-18.1l0.1-0.2c9.4,4.2,29.8,7.9,29.8,18.3H394.5
			 M343,242.1h0.2c0,17,12.4,22.2,21.7,26.6l-0.1,0.2C355.5,264.4,343,259.2,343,242.1c0-9,2.5-15.1,5.3-19.1l0.1,0.1
			c-2.8,4-5.2,10-5.3,19H343 M400.4,240.9c0.2-13.4-11.3-12.1-11.4-12.2l-0.1,0l0.1-0.2c0,0,0.1,0,0.1,0c0.1,0,0.2,0,0.4,0
			c0.3,0,0.8,0,1.3,0.1c1.1,0.1,2.6,0.4,4,1.1c2.9,1.4,5.8,4.5,5.7,11.1c15.8,0,23.7,0.1,27.7,0.1c2,0,3,0,3.5,0c0.2,0,0.3,0,0.4,0
			c0.9-11-2.8-20.4-10.5-26.9c-7.8-6.5-19.8-10-35.7-9.2c-16.8,1.9-28.6,6.3-37.5,18.4l-0.1-0.1c8.9-12.1,20.8-16.6,37.6-18.5
			c31.8-1.7,48.2,14.2,46.4,36.4c0,0-0.1,0-4,0C424.3,240.9,416.3,240.9,400.4,240.9 M348.3,223L348.3,223"/>
	</g>
	<polyline id="XMLID_26_" class="st3" points="104.2,204.1 107.7,174.8 202.6,174.8 199,204.1 104.2,204.1 	"/>
	<polyline id="XMLID_27_" class="st3" points="90,321.9 95.9,267.3 67.8,267.5 71.4,237.9 99.5,238.1 103.8,208.2 137.1,208.2 
		133.5,238.1 163.8,237.9 160.3,267.5 130,267.3 127,293 187.4,293 183.9,321.9 90,321.9 	"/>
	<path id="XMLID_28_" class="st4" d="M323.1,321.9L323.1,321.9L323.1,321.9 M266.7,321.9L266.7,321.9L266.7,321.9L266.7,321.9
		 M243.5,321.9L243.5,321.9L243.5,321.9 M223.6,321.9L223.6,321.9L223.6,321.9L223.6,321.9 M290.5,321.8l8.2-64.9l-0.3-0.1l-31.8,65
		h-22.9l-12.2-65.2l-0.4,0l-7.6,65.1H191l13.7-113.5h49.1l9.4,54.1l0.2,0l0.1,0.1l25.9-54.2h47.1L323,321.8H290.5 M263.2,262.4
		l0.1,0.5l0.2-0.5l-0.2-0.1L263.2,262.4 M231.1,256.6l0.2,0v0L231.1,256.6 M231.3,256.6l0.2,0L231.3,256.6L231.3,256.6"/>
	<path id="XMLID_37_" class="st4" d="M323.1,322.1v-0.2l0.2,0v0.2H323.1 M290.3,322.1h-0.2v-0.2l8.1-64.1L266.9,322l-0.2-0.1
		l31.9-65.1l-8.3,65.1h32.8v0.2H290.3 M266.7,322.1v-0.2l0.2,0.1l-0.1,0.1H266.7 M243.5,322.1h-0.1l0-0.1l0.2,0h23.2v0.2H243.5
		 M223.6,322.1v-0.2l0.2,0v0.2H223.6 M190.8,322.1h-0.2v-0.2l0.2,0h32.8v0.2H190.8 M231.3,257.8l-7.5,64.2l-0.2,0l7.7-65.3
		l12.2,65.3l-0.2,0L231.3,257.8 M323.1,321.9l13.6-113.9h-47.4l-26,54.3l-9.4-54.3v-0.2h0.1l0,0.1l9.3,53.8l25.7-53.8l0.1-0.1h47.5
		v0.2v-0.2h0.2l0,0.2L323.3,322L323.1,321.9 M190.8,321.9l-0.2,0L204.3,208l0-0.2h49.5v0.2h-49.4L190.8,321.9L190.8,321.9"/>
	<path id="XMLID_47_" class="st4" d="M290.3,321.9l8.3-65.1l-31.9,65.1v0h-23.2v0l-12.2-65.3l0.2,0l12.2,65.2h22.9l31.8-65l0.3,0.1
		l-8.2,64.9H323l13.6-113.5h-47.1l-25.9,54.2l-0.1-0.1l-0.2,0l-9.4-54.1h-49.1L191,321.8h32.5l7.6-65.1l0.4,0l-0.2,0l-0.2,0l0.2,0
		l-7.7,65.3v0h-32.8l13.8-113.9h49.4l9.4,54.3l26-54.3h47.4l-13.6,113.9v0H290.3 M263.2,262.4l0.2,0l0.2,0.1l-0.2,0.5L263.2,262.4"
		/>
</g>
</svg>
